<svg width="39" height="39" viewBox="0 0 39 39" fill="none" xmlns="http://www.w3.org/2000/svg">
<rect width="39" height="39" rx="9" fill="#C0DFC1"/>
<path d="M17.7244 23.7031L17.1775 22.2656H12.5212L11.9744 23.7344C11.7608 24.3073 11.5785 24.6953 11.4275 24.8984C11.2765 25.0964 11.0291 25.1953 10.6853 25.1953C10.3936 25.1953 10.1358 25.0885 9.91187 24.875C9.68792 24.6615 9.57594 24.4193 9.57594 24.1484C9.57594 23.9922 9.60198 23.8307 9.65406 23.6641C9.70615 23.4974 9.79208 23.2656 9.91187 22.9688L12.8416 15.5312C12.9249 15.3177 13.0239 15.0625 13.1384 14.7656C13.2582 14.4635 13.3832 14.2135 13.5134 14.0156C13.6489 13.8177 13.8233 13.6589 14.0369 13.5391C14.2556 13.4141 14.5239 13.3516 14.8416 13.3516C15.1645 13.3516 15.4327 13.4141 15.6462 13.5391C15.865 13.6589 16.0395 13.8151 16.1697 14.0078C16.3051 14.2005 16.4171 14.4089 16.5056 14.6328C16.5994 14.8516 16.7166 15.1458 16.8572 15.5156L19.8494 22.9062C20.0837 23.4688 20.2009 23.8776 20.2009 24.1328C20.2009 24.3984 20.089 24.6432 19.865 24.8672C19.6462 25.0859 19.3806 25.1953 19.0681 25.1953C18.8858 25.1953 18.7296 25.1615 18.5994 25.0938C18.4692 25.0312 18.3598 24.9453 18.2712 24.8359C18.1827 24.7214 18.0864 24.5495 17.9822 24.3203C17.8832 24.0859 17.7973 23.8802 17.7244 23.7031ZM13.1306 20.5234H16.5525L14.8259 15.7969L13.1306 20.5234ZM28.9788 15.3359H23.7522V18.1484H28.5647C28.9189 18.1484 29.1819 18.2292 29.3538 18.3906C29.5308 18.5469 29.6194 18.7552 29.6194 19.0156C29.6194 19.276 29.5334 19.4896 29.3616 19.6562C29.1897 19.8177 28.9241 19.8984 28.5647 19.8984H23.7522V23.1562H29.1584C29.523 23.1562 29.7965 23.2422 29.9788 23.4141C30.1663 23.5807 30.26 23.8047 30.26 24.0859C30.26 24.3568 30.1663 24.5781 29.9788 24.75C29.7965 24.9167 29.523 25 29.1584 25H22.8538C22.3485 25 21.984 24.888 21.76 24.6641C21.5413 24.4401 21.4319 24.0781 21.4319 23.5781V14.9688C21.4319 14.6354 21.4814 14.3646 21.5803 14.1562C21.6793 13.9427 21.8329 13.7891 22.0413 13.6953C22.2548 13.5964 22.5256 13.5469 22.8538 13.5469H28.9788C29.3485 13.5469 29.622 13.6302 29.7991 13.7969C29.9814 13.9583 30.0725 14.1719 30.0725 14.4375C30.0725 14.7083 29.9814 14.9271 29.7991 15.0938C29.622 15.2552 29.3485 15.3359 28.9788 15.3359Z" fill="#1C8220"/>
</svg>
