<svg width="39" height="39" viewBox="0 0 39 39" fill="none" xmlns="http://www.w3.org/2000/svg">
<rect width="39" height="39" rx="9" fill="#C0DFC1"/>
<path d="M17.7244 23.7031L17.1775 22.2656H12.5212L11.9744 23.7344C11.7608 24.3073 11.5785 24.6953 11.4275 24.8984C11.2765 25.0964 11.0291 25.1953 10.6853 25.1953C10.3936 25.1953 10.1358 25.0885 9.91187 24.875C9.68792 24.6615 9.57594 24.4193 9.57594 24.1484C9.57594 23.9922 9.60198 23.8307 9.65406 23.6641C9.70615 23.4974 9.79208 23.2656 9.91187 22.9688L12.8416 15.5312C12.9249 15.3177 13.0239 15.0625 13.1384 14.7656C13.2582 14.4635 13.3832 14.2135 13.5134 14.0156C13.6489 13.8177 13.8233 13.6589 14.0369 13.5391C14.2556 13.4141 14.5239 13.3516 14.8416 13.3516C15.1645 13.3516 15.4327 13.4141 15.6462 13.5391C15.865 13.6589 16.0395 13.8151 16.1697 14.0078C16.3051 14.2005 16.4171 14.4089 16.5056 14.6328C16.5994 14.8516 16.7166 15.1458 16.8572 15.5156L19.8494 22.9062C20.0837 23.4688 20.2009 23.8776 20.2009 24.1328C20.2009 24.3984 20.089 24.6432 19.865 24.8672C19.6462 25.0859 19.3806 25.1953 19.0681 25.1953C18.8858 25.1953 18.7296 25.1615 18.5994 25.0938C18.4692 25.0312 18.3598 24.9453 18.2712 24.8359C18.1827 24.7214 18.0864 24.5495 17.9822 24.3203C17.8832 24.0859 17.7973 23.8802 17.7244 23.7031ZM13.1306 20.5234H16.5525L14.8259 15.7969L13.1306 20.5234ZM30.135 21.5625C30.135 22.2552 29.9553 22.8776 29.5959 23.4297C29.2418 23.9818 28.7209 24.4141 28.0334 24.7266C27.3459 25.0391 26.5308 25.1953 25.5881 25.1953C24.4579 25.1953 23.5256 24.9818 22.7913 24.5547C22.2704 24.2474 21.8459 23.8385 21.5178 23.3281C21.1949 22.8125 21.0334 22.3125 21.0334 21.8281C21.0334 21.5469 21.1298 21.3073 21.3225 21.1094C21.5204 20.9062 21.7704 20.8047 22.0725 20.8047C22.3173 20.8047 22.523 20.8828 22.6897 21.0391C22.8616 21.1953 23.0074 21.4271 23.1272 21.7344C23.273 22.099 23.4293 22.4036 23.5959 22.6484C23.7678 22.8932 24.0074 23.0964 24.3147 23.2578C24.622 23.4141 25.0256 23.4922 25.5256 23.4922C26.2131 23.4922 26.7704 23.3333 27.1975 23.0156C27.6298 22.6927 27.8459 22.2917 27.8459 21.8125C27.8459 21.4323 27.7288 21.125 27.4944 20.8906C27.2652 20.651 26.9657 20.4688 26.5959 20.3438C26.2314 20.2188 25.7418 20.0859 25.1272 19.9453C24.3043 19.7526 23.6142 19.5286 23.0569 19.2734C22.5048 19.013 22.0647 18.6615 21.7366 18.2188C21.4136 17.7708 21.2522 17.2161 21.2522 16.5547C21.2522 15.9245 21.4241 15.3646 21.7678 14.875C22.1116 14.3854 22.609 14.0104 23.26 13.75C23.911 13.4844 24.6767 13.3516 25.5569 13.3516C26.26 13.3516 26.8668 13.4401 27.3772 13.6172C27.8928 13.7891 28.3199 14.0208 28.6584 14.3125C28.997 14.599 29.2444 14.901 29.4006 15.2188C29.5569 15.5365 29.635 15.8464 29.635 16.1484C29.635 16.4245 29.536 16.6745 29.3381 16.8984C29.1454 17.1172 28.9032 17.2266 28.6116 17.2266C28.3459 17.2266 28.1428 17.1615 28.0022 17.0312C27.8668 16.8958 27.7183 16.6771 27.5569 16.375C27.3485 15.9427 27.0985 15.6068 26.8069 15.3672C26.5152 15.1224 26.0465 15 25.4006 15C24.8017 15 24.3173 15.1328 23.9475 15.3984C23.5829 15.6589 23.4006 15.974 23.4006 16.3438C23.4006 16.5729 23.4631 16.7708 23.5881 16.9375C23.7131 17.1042 23.885 17.2474 24.1038 17.3672C24.3225 17.487 24.5439 17.5807 24.7678 17.6484C24.9918 17.7161 25.3616 17.8151 25.8772 17.9453C26.523 18.0964 27.1064 18.263 27.6272 18.4453C28.1532 18.6276 28.5985 18.849 28.9631 19.1094C29.3329 19.3698 29.6194 19.7005 29.8225 20.1016C30.0308 20.4974 30.135 20.9844 30.135 21.5625Z" fill="#1C8220"/>
</svg>
