<svg width="26" height="26" viewBox="0 0 26 26" fill="none" xmlns="http://www.w3.org/2000/svg">
<path d="M25.9435 7.71523L22.9196 17.2391C22.6935 17.9174 22.1 18.3696 21.3935 18.3696H9.72174C9.04348 18.3696 8.39348 17.9457 8.16739 17.3239L3.70217 5.36957H1.13043C0.508696 5.36957 0 4.86088 0 4.23914C0 3.6174 0.508696 3.1087 1.13043 3.1087H4.49348C4.97391 3.1087 5.39783 3.41957 5.56739 3.87175L10.1739 16.1087H20.913L23.3152 8.47827H10.0043C9.38261 8.47827 8.87391 7.96957 8.87391 7.34783C8.87391 6.72609 9.38261 6.2174 10.0043 6.2174H24.8696C25.237 6.2174 25.5761 6.41523 25.7739 6.69783C26 6.98044 26.0565 7.37609 25.9435 7.71523ZM10.287 19.8674C9.80652 19.8674 9.32609 20.0652 8.98696 20.4044C8.64783 20.7435 8.45 21.2239 8.45 21.7044C8.45 22.1848 8.64783 22.6652 8.98696 23.0044C9.32609 23.3435 9.80652 23.5413 10.287 23.5413C10.7674 23.5413 11.2478 23.3435 11.587 23.0044C11.9261 22.6652 12.1239 22.1848 12.1239 21.7044C12.1239 21.2239 11.9261 20.7435 11.587 20.4044C11.2478 20.0652 10.7674 19.8674 10.287 19.8674ZM20.4326 19.8674C19.9522 19.8674 19.4717 20.0652 19.1326 20.4044C18.7935 20.7435 18.5957 21.2239 18.5957 21.7044C18.5957 22.1848 18.7935 22.6652 19.1326 23.0044C19.4717 23.3435 19.9522 23.5413 20.4326 23.5413C20.913 23.5413 21.3935 23.3435 21.7326 23.0044C22.0717 22.6652 22.2696 22.1848 22.2696 21.7044C22.2696 21.2239 22.0717 20.7435 21.7326 20.4044C21.3935 20.0652 20.913 19.8674 20.4326 19.8674Z" fill="#1C8220"/>
</svg>
