<svg width="31" height="21" viewBox="0 0 31 21" fill="none" xmlns="http://www.w3.org/2000/svg">
<rect y="4" width="30" height="17" rx="5" fill="#1C8220"/>
<circle cx="15" cy="12" r="6" fill="white"/>
<path d="M13.8721 9.58887L16.6602 13.8076V9.5498C16.6602 9.27311 16.7188 9.06641 16.8359 8.92969C16.9564 8.78971 17.1175 8.71973 17.3193 8.71973C17.5277 8.71973 17.6921 8.78971 17.8125 8.92969C17.9329 9.06641 17.9932 9.27311 17.9932 9.5498V15.1797C17.9932 15.8079 17.7327 16.1221 17.2119 16.1221C17.0817 16.1221 16.9645 16.1025 16.8604 16.0635C16.7562 16.0277 16.6585 15.9691 16.5674 15.8877C16.4762 15.8063 16.3916 15.7119 16.3135 15.6045C16.2354 15.4938 16.1572 15.3815 16.0791 15.2676L13.3594 11.0977V15.292C13.3594 15.5654 13.2959 15.7721 13.1689 15.9121C13.042 16.0521 12.8792 16.1221 12.6807 16.1221C12.4756 16.1221 12.3112 16.0521 12.1875 15.9121C12.0638 15.7689 12.002 15.5622 12.002 15.292V9.76953C12.002 9.53516 12.028 9.35124 12.0801 9.21777C12.1419 9.07129 12.2445 8.95247 12.3877 8.86133C12.5309 8.76693 12.6855 8.71973 12.8516 8.71973C12.9818 8.71973 13.0924 8.74089 13.1836 8.7832C13.278 8.82552 13.3594 8.88249 13.4277 8.9541C13.4993 9.02572 13.571 9.11849 13.6426 9.23242C13.7174 9.34635 13.7939 9.46517 13.8721 9.58887Z" fill="#1C8220"/>
<line x1="11.5" y1="11.5" x2="18.5" y2="11.5" stroke="#1C8220" stroke-linecap="round"/>
<line x1="24.5" y1="1.5" x2="29.5" y2="1.5" stroke="#1C8220" stroke-width="3" stroke-linecap="round"/>
<line x1="11.5" y1="13.5" x2="18.5" y2="13.5" stroke="#1C8220" stroke-linecap="round"/>
</svg>
