<svg width="33" height="33" viewBox="0 0 33 33" fill="none" xmlns="http://www.w3.org/2000/svg">
<path d="M14.85 3.29999V6.59999C14.85 7.05374 15.2213 7.42499 15.675 7.42499H17.325C17.7788 7.42499 18.15 7.05374 18.15 6.59999V3.29999H19.8C21.6202 3.29999 23.1 4.77983 23.1 6.59999V13.2C23.1 13.4836 23.064 13.762 22.9969 14.025H10.0032C9.93614 13.762 9.90005 13.4836 9.90005 13.2V6.59999C9.90005 4.77983 11.3799 3.29999 13.2 3.29999H14.85ZM19.8 29.7C19.2225 29.7 18.676 29.5505 18.2016 29.2875C18.6915 28.4367 18.975 27.4519 18.975 26.4V19.8C18.975 18.7481 18.6915 17.7633 18.2016 16.9125C18.676 16.6495 19.2174 16.5 19.8 16.5H21.45V19.8C21.45 20.2537 21.8213 20.625 22.275 20.625H23.925C24.3788 20.625 24.75 20.2537 24.75 19.8V16.5H26.4C28.2202 16.5 29.7 17.9798 29.7 19.8V26.4C29.7 28.2201 28.2202 29.7 26.4 29.7H19.8ZM3.30005 19.8C3.30005 17.9798 4.77989 16.5 6.60005 16.5H8.25005V19.8C8.25005 20.2537 8.6213 20.625 9.07505 20.625H10.725C11.1788 20.625 11.55 20.2537 11.55 19.8V16.5H13.2C15.0202 16.5 16.5 17.9798 16.5 19.8V26.4C16.5 28.2201 15.0202 29.7 13.2 29.7H6.60005C4.77989 29.7 3.30005 28.2201 3.30005 26.4V19.8Z" fill="#1C8220"/>
</svg>
