<svg width="26" height="26" viewBox="0 0 26 26" fill="none" xmlns="http://www.w3.org/2000/svg">
<path d="M11.7 2.59998V5.19998C11.7 5.55748 11.9925 5.84998 12.35 5.84998H13.65C14.0075 5.84998 14.3 5.55748 14.3 5.19998V2.59998H15.6C17.034 2.59998 18.2 3.76591 18.2 5.19998V10.4C18.2 10.6234 18.1715 10.8428 18.1187 11.05H7.88123C7.82841 10.8428 7.79998 10.6234 7.79998 10.4V5.19998C7.79998 3.76591 8.96591 2.59998 10.4 2.59998H11.7ZM15.6 23.4C15.145 23.4 14.7143 23.2822 14.3406 23.075C14.7265 22.4047 14.95 21.6287 14.95 20.8V15.6C14.95 14.7712 14.7265 13.9953 14.3406 13.325C14.7143 13.1178 15.1409 13 15.6 13H16.9V15.6C16.9 15.9575 17.1925 16.25 17.55 16.25H18.85C19.2075 16.25 19.5 15.9575 19.5 15.6V13H20.8C22.234 13 23.4 14.1659 23.4 15.6V20.8C23.4 22.234 22.234 23.4 20.8 23.4H15.6ZM2.59998 15.6C2.59998 14.1659 3.76591 13 5.19998 13H6.49998V15.6C6.49998 15.9575 6.79248 16.25 7.14998 16.25H8.44998C8.80748 16.25 9.09998 15.9575 9.09998 15.6V13H10.4C11.834 13 13 14.1659 13 15.6V20.8C13 22.234 11.834 23.4 10.4 23.4H5.19998C3.76591 23.4 2.59998 22.234 2.59998 20.8V15.6Z" fill="#1C8220"/>
</svg>
