<svg width="39" height="39" viewBox="0 0 39 39" fill="none" xmlns="http://www.w3.org/2000/svg">
<rect width="39" height="39" rx="9" fill="#C0DFC1"/>
<path d="M13.74 23.7812V14.7578C13.74 14.2891 13.8468 13.9375 14.0603 13.7031C14.2739 13.4688 14.5499 13.3516 14.8884 13.3516C15.2374 13.3516 15.5186 13.4688 15.7322 13.7031C15.9509 13.9323 16.0603 14.2839 16.0603 14.7578V23.7812C16.0603 24.2552 15.9509 24.6094 15.7322 24.8438C15.5186 25.0781 15.2374 25.1953 14.8884 25.1953C14.5551 25.1953 14.2791 25.0781 14.0603 24.8438C13.8468 24.6042 13.74 24.25 13.74 23.7812ZM26.885 21.5625C26.885 22.2552 26.7053 22.8776 26.3459 23.4297C25.9918 23.9818 25.4709 24.4141 24.7834 24.7266C24.0959 25.0391 23.2808 25.1953 22.3381 25.1953C21.2079 25.1953 20.2756 24.9818 19.5413 24.5547C19.0204 24.2474 18.5959 23.8385 18.2678 23.3281C17.9449 22.8125 17.7834 22.3125 17.7834 21.8281C17.7834 21.5469 17.8798 21.3073 18.0725 21.1094C18.2704 20.9062 18.5204 20.8047 18.8225 20.8047C19.0673 20.8047 19.273 20.8828 19.4397 21.0391C19.6116 21.1953 19.7574 21.4271 19.8772 21.7344C20.023 22.099 20.1793 22.4036 20.3459 22.6484C20.5178 22.8932 20.7574 23.0964 21.0647 23.2578C21.372 23.4141 21.7756 23.4922 22.2756 23.4922C22.9631 23.4922 23.5204 23.3333 23.9475 23.0156C24.3798 22.6927 24.5959 22.2917 24.5959 21.8125C24.5959 21.4323 24.4788 21.125 24.2444 20.8906C24.0152 20.651 23.7157 20.4688 23.3459 20.3438C22.9814 20.2188 22.4918 20.0859 21.8772 19.9453C21.0543 19.7526 20.3642 19.5286 19.8069 19.2734C19.2548 19.013 18.8147 18.6615 18.4866 18.2188C18.1636 17.7708 18.0022 17.2161 18.0022 16.5547C18.0022 15.9245 18.1741 15.3646 18.5178 14.875C18.8616 14.3854 19.359 14.0104 20.01 13.75C20.661 13.4844 21.4267 13.3516 22.3069 13.3516C23.01 13.3516 23.6168 13.4401 24.1272 13.6172C24.6428 13.7891 25.0699 14.0208 25.4084 14.3125C25.747 14.599 25.9944 14.901 26.1506 15.2188C26.3069 15.5365 26.385 15.8464 26.385 16.1484C26.385 16.4245 26.286 16.6745 26.0881 16.8984C25.8954 17.1172 25.6532 17.2266 25.3616 17.2266C25.0959 17.2266 24.8928 17.1615 24.7522 17.0312C24.6168 16.8958 24.4683 16.6771 24.3069 16.375C24.0985 15.9427 23.8485 15.6068 23.5569 15.3672C23.2652 15.1224 22.7965 15 22.1506 15C21.5517 15 21.0673 15.1328 20.6975 15.3984C20.3329 15.6589 20.1506 15.974 20.1506 16.3438C20.1506 16.5729 20.2131 16.7708 20.3381 16.9375C20.4631 17.1042 20.635 17.2474 20.8538 17.3672C21.0725 17.487 21.2939 17.5807 21.5178 17.6484C21.7418 17.7161 22.1116 17.8151 22.6272 17.9453C23.273 18.0964 23.8564 18.263 24.3772 18.4453C24.9032 18.6276 25.3485 18.849 25.7131 19.1094C26.0829 19.3698 26.3694 19.7005 26.5725 20.1016C26.7808 20.4974 26.885 20.9844 26.885 21.5625Z" fill="#1C8220"/>
</svg>
