<svg width="26" height="26" viewBox="0 0 26 26" fill="none" xmlns="http://www.w3.org/2000/svg">
<path d="M6.50006 3.90002C5.781 3.90002 5.20006 4.48096 5.20006 5.20002C5.20006 5.91909 5.781 6.50002 6.50006 6.50002H7.25975L2.98193 10.7819C2.47412 11.2897 2.47412 12.1144 2.98193 12.6222C3.48975 13.13 4.31443 13.13 4.82225 12.6222L9.10006 8.34034V9.10002C9.10006 9.81909 9.681 10.4 10.4001 10.4C11.1191 10.4 11.7001 9.81909 11.7001 9.10002V5.20002C11.7001 4.48096 11.1191 3.90002 10.4001 3.90002H6.50006ZM19.0044 5.44784C19.0044 6.30096 19.6991 6.99565 20.5522 6.99565C21.4054 6.99565 22.1001 6.30096 22.1001 5.44784C22.1001 4.59471 21.4054 3.90002 20.5522 3.90002C19.6991 3.90002 19.0044 4.59471 19.0044 5.44784ZM13.9629 10.4894C13.9629 11.3425 14.6576 12.0372 15.5107 12.0372C16.3638 12.0372 17.0585 11.3425 17.0585 10.4894C17.0585 9.63628 16.3638 8.94159 15.5107 8.94159C14.6576 8.94159 13.9629 9.63628 13.9629 10.4894ZM20.5522 8.94159C19.6991 8.94159 19.0044 9.63628 19.0044 10.4894C19.0044 11.3425 19.6991 12.0372 20.5522 12.0372C21.4054 12.0372 22.1001 11.3425 22.1001 10.4894C22.1001 9.63628 21.4054 8.94159 20.5522 8.94159ZM8.94568 15.5106C8.94568 16.3638 9.64037 17.0585 10.4935 17.0585C11.3466 17.0585 12.0413 16.3638 12.0413 15.5106C12.0413 14.6575 11.3466 13.9628 10.4935 13.9628C9.64037 13.9628 8.94568 14.6575 8.94568 15.5106ZM15.5107 13.9628C14.6576 13.9628 13.9629 14.6575 13.9629 15.5106C13.9629 16.3638 14.6576 17.0585 15.5107 17.0585C16.3638 17.0585 17.0585 16.3638 17.0585 15.5106C17.0585 14.6575 16.3638 13.9628 15.5107 13.9628ZM19.0085 15.5106C19.0085 16.3638 19.7032 17.0585 20.5563 17.0585C21.4094 17.0585 22.1041 16.3638 22.1041 15.5106C22.1041 14.6575 21.4094 13.9628 20.5563 13.9628C19.7032 13.9628 19.0085 14.6575 19.0085 15.5106ZM5.44787 19.0044C4.59475 19.0044 3.90006 19.6991 3.90006 20.5522C3.90006 21.4053 4.59475 22.1 5.44787 22.1C6.301 22.1 6.99568 21.4053 6.99568 20.5522C6.99568 19.6991 6.301 19.0044 5.44787 19.0044ZM8.94568 20.5522C8.94568 21.4053 9.64037 22.1 10.4935 22.1C11.3466 22.1 12.0413 21.4053 12.0413 20.5522C12.0413 19.6991 11.3466 19.0044 10.4935 19.0044C9.64037 19.0044 8.94568 19.6991 8.94568 20.5522ZM15.5107 19.0044C14.6576 19.0044 13.9629 19.6991 13.9629 20.5522C13.9629 21.4053 14.6576 22.1 15.5107 22.1C16.3638 22.1 17.0585 21.4053 17.0585 20.5522C17.0585 19.6991 16.3638 19.0044 15.5107 19.0044ZM19.0085 20.5522C19.0085 21.4053 19.7032 22.1 20.5563 22.1C21.4094 22.1 22.1041 21.4053 22.1041 20.5522C22.1041 19.6991 21.4094 19.0044 20.5563 19.0044C19.7032 19.0044 19.0085 19.6991 19.0085 20.5522Z" fill="#1C8220"/>
</svg>
