<svg width="33" height="33" viewBox="0 0 33 33" fill="none" xmlns="http://www.w3.org/2000/svg">
<path d="M8.24998 4.95001C7.33732 4.95001 6.59998 5.68736 6.59998 6.60001C6.59998 7.51267 7.33732 8.25001 8.24998 8.25001H9.2142L3.78467 13.6847C3.14014 14.3292 3.14014 15.3759 3.78467 16.0205C4.4292 16.665 5.47592 16.665 6.12045 16.0205L11.55 10.5858V11.55C11.55 12.4627 12.2873 13.2 13.2 13.2C14.1126 13.2 14.85 12.4627 14.85 11.55V6.60001C14.85 5.68736 14.1126 4.95001 13.2 4.95001H8.24998ZM24.1209 6.91454C24.1209 7.99736 25.0026 8.87907 26.0854 8.87907C27.1683 8.87907 28.05 7.99736 28.05 6.91454C28.05 5.83173 27.1683 4.95001 26.0854 4.95001C25.0026 4.95001 24.1209 5.83173 24.1209 6.91454ZM17.722 13.3134C17.722 14.3963 18.6037 15.278 19.6865 15.278C20.7694 15.278 21.6511 14.3963 21.6511 13.3134C21.6511 12.2306 20.7694 11.3489 19.6865 11.3489C18.6037 11.3489 17.722 12.2306 17.722 13.3134ZM26.0854 11.3489C25.0026 11.3489 24.1209 12.2306 24.1209 13.3134C24.1209 14.3963 25.0026 15.278 26.0854 15.278C27.1683 15.278 28.05 14.3963 28.05 13.3134C28.05 12.2306 27.1683 11.3489 26.0854 11.3489ZM11.354 19.6866C11.354 20.7694 12.2358 21.6511 13.3186 21.6511C14.4014 21.6511 15.2831 20.7694 15.2831 19.6866C15.2831 18.6038 14.4014 17.722 13.3186 17.722C12.2358 17.722 11.354 18.6038 11.354 19.6866ZM19.6865 17.722C18.6037 17.722 17.722 18.6038 17.722 19.6866C17.722 20.7694 18.6037 21.6511 19.6865 21.6511C20.7694 21.6511 21.6511 20.7694 21.6511 19.6866C21.6511 18.6038 20.7694 17.722 19.6865 17.722ZM24.1261 19.6866C24.1261 20.7694 25.0078 21.6511 26.0906 21.6511C27.1734 21.6511 28.0551 20.7694 28.0551 19.6866C28.0551 18.6038 27.1734 17.722 26.0906 17.722C25.0078 17.722 24.1261 18.6038 24.1261 19.6866ZM6.91451 24.1209C5.8317 24.1209 4.94998 25.0027 4.94998 26.0855C4.94998 27.1683 5.8317 28.05 6.91451 28.05C7.99732 28.05 8.87904 27.1683 8.87904 26.0855C8.87904 25.0027 7.99732 24.1209 6.91451 24.1209ZM11.354 26.0855C11.354 27.1683 12.2358 28.05 13.3186 28.05C14.4014 28.05 15.2831 27.1683 15.2831 26.0855C15.2831 25.0027 14.4014 24.1209 13.3186 24.1209C12.2358 24.1209 11.354 25.0027 11.354 26.0855ZM19.6865 24.1209C18.6037 24.1209 17.722 25.0027 17.722 26.0855C17.722 27.1683 18.6037 28.05 19.6865 28.05C20.7694 28.05 21.6511 27.1683 21.6511 26.0855C21.6511 25.0027 20.7694 24.1209 19.6865 24.1209ZM24.1261 26.0855C24.1261 27.1683 25.0078 28.05 26.0906 28.05C27.1734 28.05 28.0551 27.1683 28.0551 26.0855C28.0551 25.0027 27.1734 24.1209 26.0906 24.1209C25.0078 24.1209 24.1261 25.0027 24.1261 26.0855Z" fill="#1C8220"/>
</svg>
