<svg width="39" height="39" viewBox="0 0 39 39" fill="none" xmlns="http://www.w3.org/2000/svg">
<rect width="39" height="39" rx="9" fill="#C0DFC1"/>
<path d="M19.0291 23.5781C19.3676 23.8073 19.7374 24.0312 20.1384 24.25C20.5395 24.4635 20.8051 24.6354 20.9353 24.7656C21.0655 24.8906 21.1306 25.0703 21.1306 25.3047C21.1306 25.4714 21.0525 25.638 20.8962 25.8047C20.7452 25.9714 20.5603 26.0547 20.3416 26.0547C20.1645 26.0547 19.9483 25.9974 19.6931 25.8828C19.4431 25.7682 19.1462 25.6016 18.8025 25.3828C18.464 25.1641 18.0916 24.9089 17.6853 24.6172C16.9301 25.0026 16.003 25.1953 14.9041 25.1953C14.0134 25.1953 13.214 25.0547 12.5056 24.7734C11.8025 24.487 11.2114 24.0781 10.7322 23.5469C10.253 23.0104 9.89104 22.375 9.64625 21.6406C9.40667 20.9062 9.28687 20.1068 9.28687 19.2422C9.28687 18.362 9.41187 17.5547 9.66187 16.8203C9.91708 16.0859 10.2843 15.4609 10.7634 14.9453C11.2426 14.4297 11.8259 14.0365 12.5134 13.7656C13.2009 13.4896 13.9822 13.3516 14.8572 13.3516C16.0447 13.3516 17.0629 13.5938 17.9119 14.0781C18.766 14.5573 19.4119 15.2422 19.8494 16.1328C20.2869 17.0182 20.5056 18.0599 20.5056 19.2578C20.5056 21.0755 20.0134 22.5156 19.0291 23.5781ZM17.2087 22.3125C17.5317 21.9427 17.7686 21.5052 17.9197 21C18.0759 20.4948 18.1541 19.9089 18.1541 19.2422C18.1541 18.4036 18.0186 17.6771 17.7478 17.0625C17.477 16.4479 17.089 15.9844 16.5837 15.6719C16.0837 15.3542 15.5082 15.1953 14.8572 15.1953C14.3936 15.1953 13.964 15.2839 13.5681 15.4609C13.1775 15.6328 12.839 15.8854 12.5525 16.2188C12.2712 16.5521 12.0473 16.9792 11.8806 17.5C11.7192 18.0156 11.6384 18.5964 11.6384 19.2422C11.6384 20.5599 11.9457 21.5755 12.5603 22.2891C13.1749 22.9974 13.9509 23.3516 14.8884 23.3516C15.2739 23.3516 15.6697 23.2708 16.0759 23.1094C15.8311 22.9271 15.5239 22.7448 15.1541 22.5625C14.7895 22.3802 14.5395 22.2396 14.4041 22.1406C14.2686 22.0417 14.2009 21.901 14.2009 21.7188C14.2009 21.5625 14.266 21.4245 14.3962 21.3047C14.5265 21.1849 14.6697 21.125 14.8259 21.125C15.2999 21.125 16.0942 21.5208 17.2087 22.3125ZM30.7131 21.5625C30.7131 22.2552 30.5334 22.8776 30.1741 23.4297C29.8199 23.9818 29.2991 24.4141 28.6116 24.7266C27.9241 25.0391 27.109 25.1953 26.1663 25.1953C25.036 25.1953 24.1038 24.9818 23.3694 24.5547C22.8485 24.2474 22.4241 23.8385 22.0959 23.3281C21.773 22.8125 21.6116 22.3125 21.6116 21.8281C21.6116 21.5469 21.7079 21.3073 21.9006 21.1094C22.0985 20.9062 22.3485 20.8047 22.6506 20.8047C22.8954 20.8047 23.1011 20.8828 23.2678 21.0391C23.4397 21.1953 23.5855 21.4271 23.7053 21.7344C23.8511 22.099 24.0074 22.4036 24.1741 22.6484C24.3459 22.8932 24.5855 23.0964 24.8928 23.2578C25.2001 23.4141 25.6038 23.4922 26.1038 23.4922C26.7913 23.4922 27.3485 23.3333 27.7756 23.0156C28.2079 22.6927 28.4241 22.2917 28.4241 21.8125C28.4241 21.4323 28.3069 21.125 28.0725 20.8906C27.8433 20.651 27.5439 20.4688 27.1741 20.3438C26.8095 20.2188 26.3199 20.0859 25.7053 19.9453C24.8824 19.7526 24.1923 19.5286 23.635 19.2734C23.0829 19.013 22.6428 18.6615 22.3147 18.2188C21.9918 17.7708 21.8303 17.2161 21.8303 16.5547C21.8303 15.9245 22.0022 15.3646 22.3459 14.875C22.6897 14.3854 23.1871 14.0104 23.8381 13.75C24.4892 13.4844 25.2548 13.3516 26.135 13.3516C26.8381 13.3516 27.4449 13.4401 27.9553 13.6172C28.4709 13.7891 28.898 14.0208 29.2366 14.3125C29.5751 14.599 29.8225 14.901 29.9788 15.2188C30.135 15.5365 30.2131 15.8464 30.2131 16.1484C30.2131 16.4245 30.1142 16.6745 29.9163 16.8984C29.7235 17.1172 29.4814 17.2266 29.1897 17.2266C28.9241 17.2266 28.7209 17.1615 28.5803 17.0312C28.4449 16.8958 28.2965 16.6771 28.135 16.375C27.9267 15.9427 27.6767 15.6068 27.385 15.3672C27.0933 15.1224 26.6246 15 25.9788 15C25.3798 15 24.8954 15.1328 24.5256 15.3984C24.161 15.6589 23.9788 15.974 23.9788 16.3438C23.9788 16.5729 24.0413 16.7708 24.1663 16.9375C24.2913 17.1042 24.4631 17.2474 24.6819 17.3672C24.9006 17.487 25.122 17.5807 25.3459 17.6484C25.5699 17.7161 25.9397 17.8151 26.4553 17.9453C27.1011 18.0964 27.6845 18.263 28.2053 18.4453C28.7314 18.6276 29.1767 18.849 29.5413 19.1094C29.911 19.3698 30.1975 19.7005 30.4006 20.1016C30.609 20.4974 30.7131 20.9844 30.7131 21.5625Z" fill="#1C8220"/>
</svg>
